Results
version=1
nRows=4
nColumns=143
inDegrees=yes
endheader
time	/jointset/groundthorax/r_z/value	/jointset/groundthorax/r_z/speed	/jointset/sternoclavicular/sternoclavicular_r2/value	/jointset/sternoclavicular/sternoclavicular_r2/speed	/jointset/sternoclavicular/sternoclavicular_r3/value	/jointset/sternoclavicular/sternoclavicular_r3/speed	/jointset/unrotscap/unrotscap_r3/value	/jointset/unrotscap/unrotscap_r3/speed	/jointset/unrotscap/unrotscap_r2/value	/jointset/unrotscap/unrotscap_r2/speed	/jointset/acromioclavicular/acromioclavicular_r2/value	/jointset/acromioclavicular/acromioclavicular_r2/speed	/jointset/acromioclavicular/acromioclavicular_r3/value	/jointset/acromioclavicular/acromioclavicular_r3/speed	/jointset/acromioclavicular/acromioclavicular_r1/value	/jointset/acromioclavicular/acromioclavicular_r1/speed	/jointset/unrothum/unrothum_r1/value	/jointset/unrothum/unrothum_r1/speed	/jointset/unrothum/unrothum_r3/value	/jointset/unrothum/unrothum_r3/speed	/jointset/unrothum/unrothum_r2/value	/jointset/unrothum/unrothum_r2/speed	/jointset/shoulder0/elv_angle/value	/jointset/shoulder0/elv_angle/speed	/jointset/shoulder1/shoulder_elv/value	/jointset/shoulder1/shoulder_elv/speed	/jointset/shoulder1/shoulder1_r2/value	/jointset/shoulder1/shoulder1_r2/speed	/jointset/shoulder2/shoulder_rot/value	/jointset/shoulder2/shoulder_rot/speed	/jointset/elbow/elbow_flexion/value	/jointset/elbow/elbow_flexion/speed	/jointset/radioulnar/pro_sup/value	/jointset/radioulnar/pro_sup/speed	/jointset/radiocarpal/deviation/value	/jointset/radiocarpal/deviation/speed	/jointset/radiocarpal/flexion/value	/jointset/radiocarpal/flexion/speed	/jointset/wrist_hand/wrist_hand_r1/value	/jointset/wrist_hand/wrist_hand_r1/speed	/jointset/wrist_hand/wrist_hand_r3/value	/jointset/wrist_hand/wrist_hand_r3/speed	/forceset/DELT1/activation	/forceset/DELT1/fiber_length	/forceset/DELT2/activation	/forceset/DELT2/fiber_length	/forceset/DELT3/activation	/forceset/DELT3/fiber_length	/forceset/SUPSP/activation	/forceset/SUPSP/fiber_length	/forceset/INFSP/activation	/forceset/INFSP/fiber_length	/forceset/SUBSC/activation	/forceset/SUBSC/fiber_length	/forceset/TMIN/activation	/forceset/TMIN/fiber_length	/forceset/TMAJ/activation	/forceset/TMAJ/fiber_length	/forceset/PECM1/activation	/forceset/PECM1/fiber_length	/forceset/PECM2/activation	/forceset/PECM2/fiber_length	/forceset/PECM3/activation	/forceset/PECM3/fiber_length	/forceset/LAT1/activation	/forceset/LAT1/fiber_length	/forceset/LAT2/activation	/forceset/LAT2/fiber_length	/forceset/LAT3/activation	/forceset/LAT3/fiber_length	/forceset/CORB/activation	/forceset/CORB/fiber_length	/forceset/TRIlong/activation	/forceset/TRIlong/fiber_length	/forceset/TRIlat/activation	/forceset/TRIlat/fiber_length	/forceset/TRImed/activation	/forceset/TRImed/fiber_length	/forceset/ANC/activation	/forceset/ANC/fiber_length	/forceset/SUP/activation	/forceset/SUP/fiber_length	/forceset/BIClong/activation	/forceset/BIClong/fiber_length	/forceset/BICshort/activation	/forceset/BICshort/fiber_length	/forceset/BRA/activation	/forceset/BRA/fiber_length	/forceset/BRD/activation	/forceset/BRD/fiber_length	/forceset/ECRL/activation	/forceset/ECRL/fiber_length	/forceset/ECRB/activation	/forceset/ECRB/fiber_length	/forceset/ECU/activation	/forceset/ECU/fiber_length	/forceset/FCR/activation	/forceset/FCR/fiber_length	/forceset/FCU/activation	/forceset/FCU/fiber_length	/forceset/PL/activation	/forceset/PL/fiber_length	/forceset/PT/activation	/forceset/PT/fiber_length	/forceset/PQ/activation	/forceset/PQ/fiber_length	/forceset/FDSL/activation	/forceset/FDSL/fiber_length	/forceset/FDSR/activation	/forceset/FDSR/fiber_length	/forceset/FDSM/activation	/forceset/FDSM/fiber_length	/forceset/FDSI/activation	/forceset/FDSI/fiber_length	/forceset/FDPL/activation	/forceset/FDPL/fiber_length	/forceset/FDPR/activation	/forceset/FDPR/fiber_length	/forceset/FDPM/activation	/forceset/FDPM/fiber_length	/forceset/FDPI/activation	/forceset/FDPI/fiber_length	/forceset/EDCL/activation	/forceset/EDCL/fiber_length	/forceset/EDCR/activation	/forceset/EDCR/fiber_length	/forceset/EDCM/activation	/forceset/EDCM/fiber_length	/forceset/EDCI/activation	/forceset/EDCI/fiber_length	/forceset/EDM/activation	/forceset/EDM/fiber_length	/forceset/EIP/activation	/forceset/EIP/fiber_length	/forceset/EPL/activation	/forceset/EPL/fiber_length	/forceset/EPB/activation	/forceset/EPB/fiber_length	/forceset/FPL/activation	/forceset/FPL/fiber_length	/forceset/APL/activation	/forceset/APL/fiber_length
      0.00000000	     10.00000028	      0.00000000	     -7.26001633	      0.00000000	      3.07500026	      0.00000000	     -3.07500026	      0.00000000	      7.26001633	      0.00000000	     -1.47000563	      0.00000000	     11.88006840	      0.00000000	      5.34000898	      0.00000000	     -5.34000898	      0.00000000	    -11.88006840	      0.00000000	      1.47000563	      0.00000000	      0.00000000	      0.00000000	     30.00000025	      0.00000000	      0.00000000	      0.00000000	      0.00000000	      0.00000000	     -0.00000115	      0.00000000	     -0.00000115	      0.00000000	      0.00000000	      0.00000000	      0.00000000	      0.00000000	      0.00000000	      0.00000000	      0.00000000	      0.00000000	      0.00000000	      0.12295918	      0.00000000	      0.10008750	      0.00000000	      0.11510945	      0.00000000	      0.06268409	      0.00000000	      0.07755575	      0.00000000	      0.07673061	      0.00000000	      0.06498184	      0.00000000	      0.12939512	      0.00000000	      0.13569273	      0.00000000	      0.11494216	      0.00000000	      0.09081098	      0.00000000	      0.17187026	      0.00000000	      0.13726304	      0.00000000	      0.20319471	      0.00000000	      0.08077037	      0.00000000	      0.14133745	      0.00000000	      0.07088243	      0.00000000	      0.06588882	      0.00000000	      0.00350486	      0.00000000	      0.03608533	      0.00000000	      0.15871390	      0.00000000	      0.17676253	      0.00000000	      0.09243236	      0.00000000	      0.19903604	      0.00000000	      0.09037837	      0.00000000	      0.06438532	      0.00000000	      0.06215874	      0.00000000	      0.06850850	      0.00000000	      0.04876213	      0.00000000	      0.06830707	      0.00000000	      0.06040281	      0.00000000	      0.02662610	      0.00000000	      0.05255632	      0.00000000	      0.07439231	      0.00000000	      0.07384773	      0.00000000	      0.08612716	      0.00000000	      0.07527987	      0.00000000	      0.07921111	      0.00000000	      0.07558892	      0.00000000	      0.07522912	      0.00000000	      0.07484982	      0.00000000	      0.06150154	      0.00000000	      0.13849719	      0.00000000	      0.06807615	      0.00000000	      0.07265405	      0.00000000	      0.06643322	      0.00000000	      0.06282090	      0.00000000	      0.06791729	      0.00000000	      0.06023692	      0.00000000	      0.07069527
      0.00000404	     10.00000028	      0.00000000	     -7.26001633	      0.00264087	      3.07500026	     -0.00111855	     -3.07500026	      0.00111855	      7.26001633	     -0.00264087	     -1.47000563	      0.00053472	     11.88006839	     -0.00432143	      5.34000898	     -0.00194245	     -5.34000898	      0.00194245	    -11.88006839	      0.00432143	      1.47000563	     -0.00053472	     -0.00000001	     -0.00378521	     30.00000023	     -0.01091265	      0.00000001	      0.00378521	     -0.00000026	     -0.12724116	     -0.00000058	      0.28097874	     -0.00000047	      0.33713225	      0.00000007	      0.03294727	     -0.00000004	     -0.02019636	      0.00000517	      2.56192812	     -0.00000117	     -0.57858307	      0.00000000	      0.12295918	      0.00000000	      0.10008750	      0.00000000	      0.11510945	      0.00000000	      0.06268409	      0.00000000	      0.07755575	      0.00000000	      0.07673061	      0.00000000	      0.06498184	      0.00000000	      0.12939512	      0.00000000	      0.13569273	      0.00000000	      0.11494216	      0.00000000	      0.09081098	      0.00000000	      0.17187026	      0.00000000	      0.13726304	      0.00000000	      0.20319471	      0.00000000	      0.08077037	      0.00000000	      0.14133745	      0.00000000	      0.07088243	      0.00000000	      0.06588882	      0.00000000	      0.00350486	      0.00000000	      0.03608533	      0.00000000	      0.15871390	      0.00000000	      0.17676253	      0.00000000	      0.09243236	      0.00000000	      0.19903604	      0.00000000	      0.09037837	      0.00000000	      0.06438532	      0.00000000	      0.06215874	      0.00000000	      0.06850850	      0.00000000	      0.04876213	      0.00000000	      0.06830707	      0.00000000	      0.06040281	      0.00000000	      0.02662610	      0.00000000	      0.05255632	      0.00000000	      0.07439231	      0.00000000	      0.07384773	      0.00000000	      0.08612716	      0.00000000	      0.07527987	      0.00000000	      0.07921111	      0.00000000	      0.07558892	      0.00000000	      0.07522912	      0.00000000	      0.07484982	      0.00000000	      0.06150154	      0.00000000	      0.13849719	      0.00000000	      0.06807615	      0.00000000	      0.07265405	      0.00000000	      0.06643322	      0.00000000	      0.06282090	      0.00000000	      0.06791729	      0.00000000	      0.06023692	      0.00000000	      0.07069527
      0.00000573	     10.00000028	      0.00000000	     -7.26001632	      0.00374211	      3.07500026	     -0.00158498	     -3.07500026	      0.00158498	      7.26001632	     -0.00374211	     -1.47000563	      0.00075770	     11.88006838	     -0.00612347	      5.34000898	     -0.00275246	     -5.34000898	      0.00275246	    -11.88006838	      0.00612347	      1.47000563	     -0.00075770	     -0.00000002	     -0.00536994	     30.00000021	     -0.01546321	      0.00000002	      0.00536994	     -0.00000052	     -0.18119610	     -0.00000000	      0.39891366	      0.00000022	      0.48643147	      0.00000013	      0.04673321	     -0.00000008	     -0.02867629	      0.00001041	      3.63390078	     -0.00000235	     -0.82151511	      0.00000000	      0.12295918	      0.00000000	      0.10008750	      0.00000000	      0.11510945	      0.00000000	      0.06268409	      0.00000000	      0.07755575	      0.00000000	      0.07673061	      0.00000000	      0.06498184	      0.00000000	      0.12939512	      0.00000000	      0.13569273	      0.00000000	      0.11494216	      0.00000000	      0.09081098	      0.00000000	      0.17187026	      0.00000000	      0.13726304	      0.00000000	      0.20319471	      0.00000000	      0.08077037	      0.00000000	      0.14133745	      0.00000000	      0.07088243	      0.00000000	      0.06588882	      0.00000000	      0.00350486	      0.00000000	      0.03608533	      0.00000000	      0.15871390	      0.00000000	      0.17676253	      0.00000000	      0.09243236	      0.00000000	      0.19903604	      0.00000000	      0.09037837	      0.00000000	      0.06438532	      0.00000000	      0.06215874	      0.00000000	      0.06850850	      0.00000000	      0.04876213	      0.00000000	      0.06830707	      0.00000000	      0.06040281	      0.00000000	      0.02662610	      0.00000000	      0.05255632	      0.00000000	      0.07439231	      0.00000000	      0.07384773	      0.00000000	      0.08612716	      0.00000000	      0.07527987	      0.00000000	      0.07921111	      0.00000000	      0.07558892	      0.00000000	      0.07522912	      0.00000000	      0.07484982	      0.00000000	      0.06150154	      0.00000000	      0.13849719	      0.00000000	      0.06807615	      0.00000000	      0.07265405	      0.00000000	      0.06643322	      0.00000000	      0.06282090	      0.00000000	      0.06791729	      0.00000000	      0.06023692	      0.00000000	      0.07069527
      0.00000742	     10.00000028	      0.00000000	     -7.26001632	      0.00482353	      3.07500026	     -0.00204302	     -3.07500026	      0.00204302	      7.26001632	     -0.00482353	     -1.47000562	      0.00097667	     11.88006837	     -0.00789308	      5.34000897	     -0.00354789	     -5.34000897	      0.00354789	    -11.88006837	      0.00789308	      1.47000562	     -0.00097667	     -0.00000003	     -0.00695825	     30.00000018	     -0.01993191	      0.00000003	      0.00695825	     -0.00000087	     -0.23875063	      0.00000077	      0.51863193	      0.00000121	      0.67734011	      0.00000022	      0.06051006	     -0.00000014	     -0.03729839	      0.00001745	      4.70516637	     -0.00000395	     -1.06852030	      0.00000000	      0.12295918	      0.00000000	      0.10008750	      0.00000000	      0.11510945	      0.00000000	      0.06268409	      0.00000000	      0.07755575	      0.00000000	      0.07673061	      0.00000000	      0.06498184	      0.00000000	      0.12939512	      0.00000000	      0.13569273	      0.00000000	      0.11494216	      0.00000000	      0.09081098	      0.00000000	      0.17187026	      0.00000000	      0.13726304	      0.00000000	      0.20319471	      0.00000000	      0.08077037	      0.00000000	      0.14133745	      0.00000000	      0.07088243	      0.00000000	      0.06588882	      0.00000000	      0.00350486	      0.00000000	      0.03608533	      0.00000000	      0.15871390	      0.00000000	      0.17676253	      0.00000000	      0.09243236	      0.00000000	      0.19903604	      0.00000000	      0.09037837	      0.00000000	      0.06438532	      0.00000000	      0.06215874	      0.00000000	      0.06850850	      0.00000000	      0.04876213	      0.00000000	      0.06830707	      0.00000000	      0.06040281	      0.00000000	      0.02662610	      0.00000000	      0.05255632	      0.00000000	      0.07439231	      0.00000000	      0.07384773	      0.00000000	      0.08612716	      0.00000000	      0.07527987	      0.00000000	      0.07921111	      0.00000000	      0.07558892	      0.00000000	      0.07522912	      0.00000000	      0.07484982	      0.00000000	      0.06150154	      0.00000000	      0.13849719	      0.00000000	      0.06807615	      0.00000000	      0.07265405	      0.00000000	      0.06643322	      0.00000000	      0.06282090	      0.00000000	      0.06791729	      0.00000000	      0.06023692	      0.00000000	      0.07069527
